# xmcd
#
# Track frame offsets:
#	150
#	15458
#	29332
#	46102
#	66993
#	80017
#	91386
#	106460
#	120861
#	144833
#	161944
#	177363
#	196186
#	208194
#
# Disc length: 2923 seconds
#
# Revision: 1
# Processed by: cddbd v1.5.2PL0 Copyright (c) Steve Scherf et al.
# Submitted via: audiograbber 1.83.01
#
DISCID=b80b690e
DTITLE=Petunia and the Vipers - Dead Bird on the Highway
DYEAR=2016
DGENRE=Americana
TTITLE0=Blue Yodel Blues
TTITLE1=Asaw Fofor
TTITLE2=Oh What A Wonderful Time
TTITLE3=Death Himself
TTITLE4=My Heart Cries Out For You
TTITLE5=Bloom Bloom Bloom
TTITLE6=Lou Lou
TTITLE7=Chained
TTITLE8=My Love Is A Deep Blue Sea
TTITLE9=Gonna Put On My Suit
TTITLE10=Way Down Here
TTITLE11=Put Yourself On The Market
TTITLE12=Try To Enjoy Yourself (Come On Baby)
TTITLE13=I'm Shakin'
EXTD=
EXTT0=
EXTT1=
EXTT2=
EXTT3=
EXTT4=
EXTT5=
EXTT6=
EXTT7=
EXTT8=
EXTT9=
EXTT10=
EXTT11=
EXTT12=
EXTT13=
PLAYORDER=
